<?xml version="1.0" encoding="UTF-8"?>
<svg id="_レイヤー_1" data-name="レイヤー_1" xmlns="http://www.w3.org/2000/svg" viewBox="0 0 173.84 173.84">
  <defs>
    <style>
      .cls-1 {
        fill: #c7c7c7;
      }
    </style>
  </defs>
  <path class="cls-1" d="M125.29,10c21.25,0,38.55,17.29,38.55,38.55v76.74c0,21.25-17.29,38.55-38.55,38.55H48.55c-21.25,0-38.55-17.29-38.55-38.55V48.55c0-21.25,17.29-38.55,38.55-38.55h76.74M125.29,0H48.55C21.85,0,0,21.85,0,48.55v76.74c0,26.7,21.85,48.55,48.55,48.55h76.74c26.7,0,48.55-21.85,48.55-48.55V48.55c0-26.7-21.85-48.55-48.55-48.55h0Z"/>
  <path class="cls-1" d="M86.92,53.05c18.68,0,33.87,15.19,33.87,33.87s-15.19,33.87-33.87,33.87-33.87-15.19-33.87-33.87,15.19-33.87,33.87-33.87M86.92,43.05c-24.23,0-43.87,19.64-43.87,43.87s19.64,43.87,43.87,43.87,43.87-19.64,43.87-43.87-19.64-43.87-43.87-43.87h0Z"/>
  <path class="cls-1" d="M137.7,31.79c.65,0,1.19.53,1.19,1.19s-.53,1.19-1.19,1.19-1.19-.53-1.19-1.19.53-1.19,1.19-1.19M137.7,21.79c-6.18,0-11.19,5.01-11.19,11.19s5.01,11.19,11.19,11.19,11.19-5.01,11.19-11.19-5.01-11.19-11.19-11.19h0Z"/>
</svg>